<svg xmlns="http://www.w3.org/2000/svg" viewBox="0 0 800 600" fill="none">
  <!-- Background -->
  <rect width="800" height="600" fill="#f8fafc"/>
  
  <!-- Browser Window -->
  <rect x="50" y="50" width="700" height="500" rx="12" fill="white" stroke="#e2e8f0" stroke-width="2"/>
  
  <!-- Browser Header -->
  <rect x="50" y="50" width="700" height="40" rx="12" fill="#f1f5f9"/>
  <rect x="50" y="90" width="700" height="1" fill="#e2e8f0"/>
  
  <!-- Traffic Lights -->
  <circle cx="80" cy="70" r="6" fill="#ef4444"/>
  <circle cx="110" cy="70" r="6" fill="#f59e0b"/>
  <circle cx="140" cy="70" r="6" fill="#10b981"/>
  
  <!-- URL Bar -->
  <rect x="200" y="60" width="400" height="20" rx="10" fill="white" stroke="#e2e8f0"/>
  <text x="210" y="72" font-family="Arial, sans-serif" font-size="12" fill="#64748b">autojobr.com/dashboard</text>
  
  <!-- Sidebar -->
  <rect x="70" y="110" width="160" height="420" fill="#f8fafc" stroke="#e2e8f0"/>
  
  <!-- Sidebar Items -->
  <rect x="80" y="130" width="140" height="30" rx="6" fill="#3b82f6"/>
  <text x="90" y="148" font-family="Arial, sans-serif" font-size="12" fill="white">Dashboard</text>
  
  <rect x="80" y="170" width="140" height="30" rx="6" fill="#f1f5f9"/>
  <text x="90" y="188" font-family="Arial, sans-serif" font-size="12" fill="#64748b">Resume Analysis</text>
  
  <rect x="80" y="210" width="140" height="30" rx="6" fill="#f1f5f9"/>
  <text x="90" y="228" font-family="Arial, sans-serif" font-size="12" fill="#64748b">Job Search</text>
  
  <rect x="80" y="250" width="140" height="30" rx="6" fill="#f1f5f9"/>
  <text x="90" y="268" font-family="Arial, sans-serif" font-size="12" fill="#64748b">Applications</text>
  
  <rect x="80" y="290" width="140" height="30" rx="6" fill="#f1f5f9"/>
  <text x="90" y="308" font-family="Arial, sans-serif" font-size="12" fill="#64748b">Career AI</text>
  
  <!-- Main Content -->
  <rect x="250" y="110" width="480" height="420" fill="white"/>
  
  <!-- Header -->
  <text x="270" y="140" font-family="Arial, sans-serif" font-size="20" font-weight="bold" fill="#1e293b">Welcome back, Sarah!</text>
  <text x="270" y="160" font-family="Arial, sans-serif" font-size="14" fill="#64748b">Here's your job search progress</text>
  
  <!-- Stats Cards -->
  <rect x="270" y="180" width="140" height="80" rx="8" fill="#f8fafc" stroke="#e2e8f0"/>
  <text x="280" y="200" font-family="Arial, sans-serif" font-size="12" fill="#64748b">Applications</text>
  <text x="280" y="220" font-family="Arial, sans-serif" font-size="24" font-weight="bold" fill="#1e293b">23</text>
  <text x="280" y="240" font-family="Arial, sans-serif" font-size="12" fill="#10b981">+12% this week</text>
  
  <rect x="430" y="180" width="140" height="80" rx="8" fill="#f8fafc" stroke="#e2e8f0"/>
  <text x="440" y="200" font-family="Arial, sans-serif" font-size="12" fill="#64748b">Response Rate</text>
  <text x="440" y="220" font-family="Arial, sans-serif" font-size="24" font-weight="bold" fill="#1e293b">34%</text>
  <text x="440" y="240" font-family="Arial, sans-serif" font-size="12" fill="#10b981">+5% this week</text>
  
  <rect x="590" y="180" width="120" height="80" rx="8" fill="#f8fafc" stroke="#e2e8f0"/>
  <text x="600" y="200" font-family="Arial, sans-serif" font-size="12" fill="#64748b">ATS Score</text>
  <text x="600" y="220" font-family="Arial, sans-serif" font-size="24" font-weight="bold" fill="#1e293b">89%</text>
  <text x="600" y="240" font-family="Arial, sans-serif" font-size="12" fill="#10b981">Excellent</text>
  
  <!-- Recent Activity -->
  <text x="270" y="300" font-family="Arial, sans-serif" font-size="16" font-weight="bold" fill="#1e293b">Recent Activity</text>
  
  <rect x="270" y="320" width="440" height="60" rx="8" fill="#f8fafc" stroke="#e2e8f0"/>
  <circle cx="295" cy="350" r="15" fill="#3b82f6"/>
  <text x="285" y="355" font-family="Arial, sans-serif" font-size="12" fill="white">AI</text>
  <text x="320" y="345" font-family="Arial, sans-serif" font-size="14" fill="#1e293b">Resume optimized for Software Engineer role</text>
  <text x="320" y="360" font-family="Arial, sans-serif" font-size="12" fill="#64748b">2 hours ago</text>
  
  <rect x="270" y="390" width="440" height="60" rx="8" fill="#f8fafc" stroke="#e2e8f0"/>
  <circle cx="295" cy="420" r="15" fill="#10b981"/>
  <text x="285" y="425" font-family="Arial, sans-serif" font-size="12" fill="white">✓</text>
  <text x="320" y="415" font-family="Arial, sans-serif" font-size="14" fill="#1e293b">Applied to Senior Developer at TechCorp</text>
  <text x="320" y="430" font-family="Arial, sans-serif" font-size="12" fill="#64748b">5 hours ago</text>
  
  <rect x="270" y="460" width="440" height="60" rx="8" fill="#f8fafc" stroke="#e2e8f0"/>
  <circle cx="295" cy="490" r="15" fill="#f59e0b"/>
  <text x="285" y="495" font-family="Arial, sans-serif" font-size="12" fill="white">!</text>
  <text x="320" y="485" font-family="Arial, sans-serif" font-size="14" fill="#1e293b">Interview scheduled with StartupXYZ</text>
  <text x="320" y="500" font-family="Arial, sans-serif" font-size="12" fill="#64748b">1 day ago</text>
</svg>